<svg width="34.000000" height="37.000000" viewBox="0 0 34 37" fill="none" xmlns="http://www.w3.org/2000/svg" xmlns:xlink="http://www.w3.org/1999/xlink">
	<desc>
			Created with Pixso.
	</desc>
	<defs>
		<clipPath id="clip30_675">
			<rect id="admin-2-svgrepo-com" width="34.000000" height="37.000000" fill="white" fill-opacity="0"/>
		</clipPath>
	</defs>
	<g clip-path="url(#clip30_675)">
		<path id="path" d="M18.9 8.58C18.85 7.74 17.99 7.88 17.16 7.88C17.77 8.05 18.36 8.28 18.9 8.58Z" fill="#FFFFFF" fill-opacity="1.000000" fill-rule="nonzero"/>
		<path id="path" d="M9.95 6.48C6.7 6.48 5.2 10.59 7.8 12.66C8.69 10.29 10.45 8.59 12.76 7.92C12.13 7.05 11.11 6.48 9.95 6.48Z" fill="#FFFFFF" fill-opacity="1.000000" fill-rule="nonzero"/>
		<path id="path" d="M3.24 12.01C3.37 12.44 3.54 12.85 3.74 13.23L2.68 14.3C2.39 14.59 2.39 15.05 2.68 15.34L4.56 17.22C4.69 17.36 4.88 17.44 5.08 17.44C5.27 17.44 5.46 17.36 5.6 17.22L6.66 16.15C6.82 16.24 7 16.29 7.17 16.36C7.17 16.35 7.17 16.34 7.17 16.33C7.17 15.45 7.27 14.63 7.44 13.86C6.16 13.03 5.3 11.59 5.3 9.95C5.3 7.38 7.38 5.3 9.95 5.3C11.68 5.3 13.18 6.26 13.98 7.68C14.84 7.57 15.64 7.57 16.61 7.75C16.48 7.38 16.34 7.01 16.15 6.66L17.22 5.6C17.36 5.46 17.44 5.27 17.44 5.08C17.44 4.88 17.36 4.69 17.22 4.56L15.34 2.68C15.2 2.53 15.01 2.46 14.82 2.46C14.63 2.46 14.45 2.53 14.3 2.68L13.23 3.74C12.84 3.54 12.44 3.37 12.01 3.24L12.01 1.73C12.01 1.32 11.69 1 11.28 1L8.62 1C8.21 1 7.88 1.32 7.88 1.73L7.88 3.24C7.46 3.37 7.05 3.54 6.66 3.74L5.6 2.68C5.45 2.53 5.27 2.46 5.08 2.46C4.89 2.46 4.7 2.53 4.56 2.68L2.68 4.56C2.54 4.7 2.46 4.88 2.46 5.08C2.46 5.27 2.54 5.46 2.68 5.6L3.74 6.66C3.54 7.05 3.37 7.46 3.24 7.88L1.73 7.88C1.32 7.88 1 8.21 1 8.62L1 11.28C1 11.68 1.32 12.01 1.73 12.01L3.24 12.01Z" fill="#FFFFFF" fill-opacity="1.000000" fill-rule="nonzero"/>
		<path id="path" d="M26.28 26.25C27.46 25.61 28.27 24.37 28.27 22.94C28.27 20.84 26.57 19.14 24.47 19.14C23.74 19.14 23.06 19.36 22.47 19.73C22.13 21.12 21.58 22.44 20.86 23.6C22.89 23.98 24.76 24.91 26.28 26.25Z" fill="#FFFFFF" fill-opacity="1.000000" fill-rule="nonzero"/>
		<path id="path" d="M34.14 21.5C34.14 21.06 33.78 20.71 33.34 20.71L31.72 20.71C31.58 20.25 31.39 19.81 31.17 19.39L32.32 18.24C32.47 18.09 32.55 17.89 32.55 17.68C32.55 17.47 32.47 17.27 32.32 17.12L30.29 15.09C30.14 14.93 29.93 14.86 29.73 14.86C29.53 14.86 29.33 14.93 29.17 15.09L28.02 16.24C27.6 16.02 27.16 15.84 26.7 15.7L26.7 14.07C26.7 13.63 26.35 13.28 25.91 13.28L23.04 13.28C22.85 13.28 22.68 13.35 22.54 13.47C22.78 14.35 22.91 15.31 22.91 16.33C22.91 16.97 22.86 17.63 22.77 18.28C23.3 18.09 23.87 17.96 24.47 17.96C27.22 17.96 29.45 20.2 29.45 22.94C29.45 24.69 28.53 26.23 27.16 27.11C28.16 28.21 28.95 29.51 29.47 30.96C29.56 30.99 29.64 31.02 29.73 31.02C29.94 31.02 30.14 30.94 30.29 30.78L32.32 28.75C32.47 28.61 32.55 28.4 32.55 28.19C32.55 27.98 32.47 27.78 32.32 27.63L31.17 26.48C31.39 26.06 31.58 25.62 31.72 25.16L33.34 25.16C33.55 25.16 33.76 25.08 33.91 24.93C34.05 24.78 34.14 24.58 34.14 24.37L34.14 21.5Z" fill="#FFFFFF" fill-opacity="1.000000" fill-rule="nonzero"/>
		<path id="path" d="M27.85 31.68C26.62 28.06 23.37 25.57 19.62 25.23C18.36 26.56 16.8 27.41 15.04 27.41C13.28 27.41 11.72 26.56 10.46 25.23C6.71 25.57 3.45 28.06 2.22 31.68L1.54 33.69C1.35 34.26 1.44 34.9 1.8 35.39C2.15 35.89 2.72 36.18 3.33 36.18L26.75 36.18C27.36 36.18 27.93 35.89 28.28 35.39C28.64 34.9 28.73 34.26 28.53 33.69L27.85 31.68Z" fill="#FFFFFF" fill-opacity="1.000000" fill-rule="nonzero"/>
		<path id="path" d="M8.93 16.33C8.93 20.82 11.67 25.64 15.04 25.64C18.41 25.64 21.15 20.82 21.15 16.33C21.15 7.01 8.93 7 8.93 16.33Z" fill="#FFFFFF" fill-opacity="1.000000" fill-rule="nonzero"/>
	</g>
</svg>
